
                            Swedish Hardsub

 
http://www.imdb.com/title/tt0455584/

General
Complete name                       : The.Kovak.Box.2006.DVDRip.SweSub.Xvid.avi
Format                              : AVI
Format/Info                         : Audio Video Interleave
File size                           : 700 MiB
Duration                            : 1h 44mn


Video
ID                                  : 0
Format                              : MPEG-4 Visual
Format profile                      : Advanced Simple@L5
Format settings, BVOP               : 2
Format settings, QPel               : No
Format settings, GMC                : No warppoints
Format settings, Matrix             : Default (H.263)
Codec ID                            : XVID
Codec ID/Hint                       : XviD
Duration                            : 1h 44mn
Bit rate                            : 798 Kbps
Width                               : 720 pixels
Height                              : 304 pixels
Display aspect ratio                : 2.35:1
Frame rate                          : 25.000 fps
Color space                         : YUV
Chroma subsampling                  : 4:2:0
Bit depth                           : 8 bits
Scan type                           : Progressive
Compression mode                    : Lossy
Bits/(Pixel*Frame)                  : 0.146
Stream size                         : 595 MiB (85%)
Writing library                     : XviD 73

Audio
ID                                  : 1
Format                              : MPEG Audio
Format version                      : Version 1
Format profile                      : Layer 3
Mode                                : Joint stereo
Mode extension                      : MS Stereo
Codec ID                            : 55
Codec ID/Hint                       : MP3
Duration                            : 1h 44mn
Bit rate mode                       : Variable
Bit rate                            : 128 Kbps
Channel(s)                          : 2 channels
Sampling rate                       : 48.0 KHz
Compression mode                    : Lossy
Stream size                         : 94.5 MiB (14%)
Alignment                           : Aligned on interleaves
Interleave, duration                : 24 ms (0.60 video frame)
Interleave, preload duration        : 524 ms
Writing library                     : LAME3.90.
Encoding settings                   : -m j -V 4 -q 2 -lowpass 17.6 --abr 128

